HIERARCHY
ROOT Hips
{
	OFFSET 0.000000 71.427986 0.000000
	CHANNELS 6 Xposition Yposition Zposition Xrotation Yrotation Zrotation
	JOINT Pelvis
	{
		OFFSET 0.000000 0.000000 0.000000
		CHANNELS 3 Xrotation Yrotation Zrotation
		JOINT LeftUpLeg
		{
			OFFSET 6.797100 -2.508499 -1.318700
			CHANNELS 3 Xrotation Yrotation Zrotation
			JOINT LeftLeg
			{
				OFFSET 0.069008 -29.241863 0.690200
				CHANNELS 3 Xrotation Yrotation Zrotation
				JOINT LeftFoot
				{
					OFFSET -0.069008 -29.568123 -0.266800
					CHANNELS 3 Xrotation Yrotation Zrotation
					JOINT LeftToeBase
					{
						OFFSET 3.145500 -8.631000 16.059900
						CHANNELS 3 Xrotation Yrotation Zrotation
						End Site
						{
							OFFSET 0.000000 18.501587 0.000000
						}
					}
				}
			}
			JOINT Left_ShortSleeve
			{
				OFFSET 0.265923 -10.480953 1.153800
				CHANNELS 3 Xrotation Yrotation Zrotation
				End Site
				{
					OFFSET 1.725763 19.823879 0.000000
				}
			}
		}
		JOINT RightUpLeg
		{
			OFFSET -6.797100 -2.508499 -1.318700
			CHANNELS 3 Xrotation Yrotation Zrotation
			JOINT RightLeg
			{
				OFFSET -0.082453 -29.241932 0.688000
				CHANNELS 3 Xrotation Yrotation Zrotation
				JOINT RightFoot
				{
					OFFSET 0.082453 -29.568058 -0.264600
					CHANNELS 3 Xrotation Yrotation Zrotation
					JOINT RightToeBase
					{
						OFFSET -3.115300 -8.682800 16.113400
						CHANNELS 3 Xrotation Yrotation Zrotation
						End Site
						{
							OFFSET 0.000000 18.567114 0.000000
						}
					}
				}
			}
			JOINT Right_ShortSleeve
			{
				OFFSET -0.265923 -10.480953 1.153800
				CHANNELS 3 Xrotation Yrotation Zrotation
				End Site
				{
					OFFSET -1.725766 19.823910 0.000000
				}
			}
		}
	}
	JOINT Spine
	{
		OFFSET 0.000000 13.368103 0.470500
		CHANNELS 3 Xrotation Yrotation Zrotation
		JOINT Spine1
		{
			OFFSET 0.147000 13.837402 0.538800
			CHANNELS 3 Xrotation Yrotation Zrotation
			JOINT Spine2
			{
				OFFSET 0.168000 16.242897 -1.435500
				CHANNELS 3 Xrotation Yrotation Zrotation
				JOINT Neck
				{
					OFFSET 0.217200 18.631500 -1.679100
					CHANNELS 3 Xrotation Yrotation Zrotation
					JOINT Head
					{
						OFFSET 0.000000 6.599396 1.385900
						CHANNELS 3 Xrotation Yrotation Zrotation
						JOINT Hat
						{
							OFFSET -0.532200 27.220596 -10.096100
							CHANNELS 3 Xrotation Yrotation Zrotation
							End Site
							{
								OFFSET 0.000000 22.029861 0.000000
							}
						}
						JOINT HairD
						{
							OFFSET -10.777400 17.437393 -1.325900
							CHANNELS 3 Xrotation Yrotation Zrotation
							JOINT HairD1
							{
								OFFSET -3.290299 -11.051193 1.062200
								CHANNELS 3 Xrotation Yrotation Zrotation
								End Site
								{
									OFFSET 0.000000 11.579437 0.000000
								}
							}
						}
						JOINT HairB
						{
							OFFSET -10.777400 17.437393 1.467900
							CHANNELS 3 Xrotation Yrotation Zrotation
							JOINT HairB1
							{
								OFFSET -1.561200 -12.956299 3.590200
								CHANNELS 3 Xrotation Yrotation Zrotation
								End Site
								{
									OFFSET 0.000000 13.534866 0.000000
								}
							}
						}
						JOINT HairA
						{
							OFFSET 9.713100 17.437393 1.467900
							CHANNELS 3 Xrotation Yrotation Zrotation
							JOINT HairA1
							{
								OFFSET 1.561200 -12.956299 3.590200
								CHANNELS 3 Xrotation Yrotation Zrotation
								End Site
								{
									OFFSET 0.000000 13.534866 0.000000
								}
							}
						}
						JOINT HairC
						{
							OFFSET 9.713100 17.437393 -1.325900
							CHANNELS 3 Xrotation Yrotation Zrotation
							JOINT HairC1
							{
								OFFSET 3.290300 -11.051193 1.062200
								CHANNELS 3 Xrotation Yrotation Zrotation
								End Site
								{
									OFFSET 0.000000 11.579437 0.000000
								}
							}
						}
					}
				}
				JOINT LeftShoulder
				{
					OFFSET 5.101800 15.108002 -2.763700
					CHANNELS 3 Xrotation Yrotation Zrotation
					JOINT LeftArm
					{
						OFFSET 9.825497 2.506317 -1.597400
						CHANNELS 3 Xrotation Yrotation Zrotation
						JOINT LeftForeArm
						{
							OFFSET 21.966244 0.000000 0.000000
							CHANNELS 3 Xrotation Yrotation Zrotation
							JOINT LeftHand
							{
								OFFSET 33.879036 0.000000 0.000000
								CHANNELS 3 Xrotation Yrotation Zrotation
								JOINT LeftHandThumb1
								{
									OFFSET 6.715286 -2.359680 3.363841
									CHANNELS 3 Xrotation Yrotation Zrotation
									JOINT LeftHandThumb2
									{
										OFFSET 2.507072 -1.447464 1.447461
										CHANNELS 3 Xrotation Yrotation Zrotation
										JOINT LeftHandThumb3
										{
											OFFSET 2.898338 -1.673355 1.673357
											CHANNELS 3 Xrotation Yrotation Zrotation
											End Site
											{
												OFFSET -0.295959 3.727692 -0.131651
											}
										}
									}
								}
								JOINT LeftHandIndex1
								{
									OFFSET 14.190811 -0.254547 3.840278
									CHANNELS 3 Xrotation Yrotation Zrotation
									JOINT LeftHandIndex2
									{
										OFFSET 3.551727 0.000000 -0.000000
										CHANNELS 3 Xrotation Yrotation Zrotation
										JOINT LeftHandIndex3
										{
											OFFSET 2.894196 0.000000 0.000000
											CHANNELS 3 Xrotation Yrotation Zrotation
											End Site
											{
												OFFSET -1.000603 2.690872 0.366626
											}
										}
									}
								}
								JOINT LeftHandMiddle1
								{
									OFFSET 13.776489 0.000000 0.000000
									CHANNELS 3 Xrotation Yrotation Zrotation
									JOINT LeftHandMiddle2
									{
										OFFSET 3.438232 0.000000 0.000000
										CHANNELS 3 Xrotation Yrotation Zrotation
										JOINT LeftHandMiddle3
										{
											OFFSET 3.691551 0.000000 0.000000
											CHANNELS 3 Xrotation Yrotation Zrotation
											End Site
											{
												OFFSET -1.082298 3.499527 0.457670
											}
										}
									}
								}
								JOINT LeftHandRing1
								{
									OFFSET 13.966164 -0.268127 -3.067488
									CHANNELS 3 Xrotation Yrotation Zrotation
									JOINT LeftHandRing2
									{
										OFFSET 3.162567 0.000000 0.000000
										CHANNELS 3 Xrotation Yrotation Zrotation
										JOINT LeftHandRing3
										{
											OFFSET 3.324348 0.000000 0.000000
											CHANNELS 3 Xrotation Yrotation Zrotation
											End Site
											{
												OFFSET -0.861900 3.184998 0.405154
											}
										}
									}
								}
								JOINT LeftHandPinky1
								{
									OFFSET 13.131393 -0.168503 -5.746925
									CHANNELS 3 Xrotation Yrotation Zrotation
									JOINT LeftHandPinky2
									{
										OFFSET 2.849182 0.000000 0.000000
										CHANNELS 3 Xrotation Yrotation Zrotation
										JOINT LeftHandPinky3
										{
											OFFSET 2.805038 0.000000 0.000000
											CHANNELS 3 Xrotation Yrotation Zrotation
											End Site
											{
												OFFSET -0.882500 2.642609 0.325652
											}
										}
									}
								}
							}
							JOINT Left_Sleeve
							{
								OFFSET 6.592125 -0.646545 0.805568
								CHANNELS 3 Xrotation Yrotation Zrotation
								End Site
								{
									OFFSET -0.000179 20.275787 -0.000000
								}
							}
						}
					}
				}
				JOINT RightShoulder
				{
					OFFSET -5.731700 15.108002 -2.763700
					CHANNELS 3 Xrotation Yrotation Zrotation
					JOINT RightArm
					{
						OFFSET -9.825497 2.506317 -1.597400
						CHANNELS 3 Xrotation Yrotation Zrotation
						JOINT RightForeArm
						{
							OFFSET -21.966242 0.000000 0.000000
							CHANNELS 3 Xrotation Yrotation Zrotation
							JOINT RightHand
							{
								OFFSET -33.879032 0.000000 0.000000
								CHANNELS 3 Xrotation Yrotation Zrotation
								JOINT RightHandThumb1
								{
									OFFSET -6.715286 -2.359680 3.363841
									CHANNELS 3 Xrotation Yrotation Zrotation
									JOINT RightHandThumb2
									{
										OFFSET -2.507072 -1.447464 1.447461
										CHANNELS 3 Xrotation Yrotation Zrotation
										JOINT RightHandThumb3
										{
											OFFSET -2.898338 -1.673355 1.673357
											CHANNELS 3 Xrotation Yrotation Zrotation
											End Site
											{
												OFFSET 0.295959 3.727692 -0.131651
											}
										}
									}
								}
								JOINT RightHandIndex1
								{
									OFFSET -14.190811 -0.254547 3.840278
									CHANNELS 3 Xrotation Yrotation Zrotation
									JOINT RightHandIndex2
									{
										OFFSET -3.551727 0.000000 -0.000000
										CHANNELS 3 Xrotation Yrotation Zrotation
										JOINT RightHandIndex3
										{
											OFFSET -2.894196 0.000000 0.000000
											CHANNELS 3 Xrotation Yrotation Zrotation
											End Site
											{
												OFFSET 1.000603 2.690872 0.366626
											}
										}
									}
								}
								JOINT RightHandMiddle1
								{
									OFFSET -13.776489 0.000000 0.000000
									CHANNELS 3 Xrotation Yrotation Zrotation
									JOINT RightHandMiddle2
									{
										OFFSET -3.438232 0.000000 0.000000
										CHANNELS 3 Xrotation Yrotation Zrotation
										JOINT RightHandMiddle3
										{
											OFFSET -3.691551 0.000000 0.000000
											CHANNELS 3 Xrotation Yrotation Zrotation
											End Site
											{
												OFFSET 1.082298 3.499527 0.457670
											}
										}
									}
								}
								JOINT RightHandRing1
								{
									OFFSET -13.966164 -0.268127 -3.067488
									CHANNELS 3 Xrotation Yrotation Zrotation
									JOINT RightHandRing2
									{
										OFFSET -3.162567 0.000000 0.000000
										CHANNELS 3 Xrotation Yrotation Zrotation
										JOINT RightHandRing3
										{
											OFFSET -3.324348 0.000000 0.000000
											CHANNELS 3 Xrotation Yrotation Zrotation
											End Site
											{
												OFFSET 0.861900 3.184998 0.405154
											}
										}
									}
								}
								JOINT RightHandPinky1
								{
									OFFSET -13.131393 -0.168503 -5.746925
									CHANNELS 3 Xrotation Yrotation Zrotation
									JOINT RightHandPinky2
									{
										OFFSET -2.849182 0.000000 0.000000
										CHANNELS 3 Xrotation Yrotation Zrotation
										JOINT RightHandPinky3
										{
											OFFSET -2.805038 0.000000 0.000000
											CHANNELS 3 Xrotation Yrotation Zrotation
											End Site
											{
												OFFSET 0.882500 2.642609 0.325652
											}
										}
									}
								}
							}
							JOINT Right_Sleeve
							{
								OFFSET -6.592125 -0.646545 0.805568
								CHANNELS 3 Xrotation Yrotation Zrotation
								End Site
								{
									OFFSET 0.000179 20.275787 -0.000000
								}
							}
						}
					}
				}
				JOINT Bind_Right_JacketString
				{
					OFFSET -3.534800 11.969597 7.200700
					CHANNELS 3 Xrotation Yrotation Zrotation
					JOINT Bind_Right_JacketString1
					{
						OFFSET -0.319900 -6.102600 2.794100
						CHANNELS 3 Xrotation Yrotation Zrotation
						End Site
						{
							OFFSET 0.000000 6.719452 0.000000
						}
					}
				}
				JOINT Bind_Left_JacketString
				{
					OFFSET 2.904800 11.969597 7.200700
					CHANNELS 3 Xrotation Yrotation Zrotation
					JOINT Bind_Left_JacketString1
					{
						OFFSET 0.364800 -5.904503 3.186800
						CHANNELS 3 Xrotation Yrotation Zrotation
						End Site
						{
							OFFSET 0.000000 6.719513 0.000000
						}
					}
				}
				JOINT HairE
				{
					OFFSET 5.915200 17.612701 -11.592200
					CHANNELS 3 Xrotation Yrotation Zrotation
					JOINT HairE1
					{
						OFFSET 0.289200 -7.171898 -1.284500
						CHANNELS 3 Xrotation Yrotation Zrotation
						End Site
						{
							OFFSET 0.000000 7.291756 0.000000
						}
					}
				}
				JOINT HairF
				{
					OFFSET -0.864800 17.612701 -11.592200
					CHANNELS 3 Xrotation Yrotation Zrotation
					JOINT HairF1
					{
						OFFSET 0.000000 -14.087097 -2.127501
						CHANNELS 3 Xrotation Yrotation Zrotation
						End Site
						{
							OFFSET 0.000000 14.246841 0.000000
						}
					}
				}
				JOINT HairG
				{
					OFFSET -8.087700 17.612701 -11.592200
					CHANNELS 3 Xrotation Yrotation Zrotation
					JOINT HairG1
					{
						OFFSET -0.293600 -6.081398 -0.910100
						CHANNELS 3 Xrotation Yrotation Zrotation
						End Site
						{
							OFFSET 0.000000 6.156120 0.000000
						}
					}
				}
			}
		}
	}
	JOINT Pouch
	{
		OFFSET 0.000000 4.394501 10.847300
		CHANNELS 3 Xrotation Yrotation Zrotation
		End Site
		{
			OFFSET 0.000000 21.880577 0.000000
		}
	}
	JOINT Bag
	{
		OFFSET -13.229000 4.813004 -0.593300
		CHANNELS 3 Xrotation Yrotation Zrotation
		End Site
		{
			OFFSET 0.000000 21.880577 0.000000
		}
	}
	JOINT OccupyGuyFacialAnim_Joint
	{
		OFFSET 1.000000 -70.206398 -1.655000
		CHANNELS 3 Xrotation Yrotation Zrotation
		End Site
		{
			OFFSET 0.000000 21.880577 0.000000
		}
	}
}
MOTION
Frames: 4
Frame Time: 0.016667
-1.002998 61.113220 0.954140 -5.398736 -46.240538 -0.076290 0.000001 0.000000 -0.000000 -30.005260 8.764956 16.917219 59.651484 -6.803111 4.274556 -27.272479 -7.853989 -13.834114 -0.000000 -0.000002 -0.000000 0.000005 -0.000001 -0.000000 -23.366676 -12.095284 -27.277853 58.857905 -8.982167 -7.733457 -28.147263 -6.820264 22.141609 -0.000000 -0.000001 -0.000000 0.000001 -0.000000 0.000001 9.472853 7.172794 -1.781860 2.187715 0.989899 -0.915631 2.202830 0.982774 -0.894154 0.084653 13.220562 4.538680 8.920923 20.138147 -4.130235 0.000000 0.000000 0.000001 0.000000 0.000000 0.000001 0.000000 0.000000 0.000001 0.000000 0.000000 0.000001 -0.000000 0.000000 0.000001 0.000000 0.000000 0.000001 -0.000000 0.000000 0.000001 0.000000 0.000000 0.000001 0.000000 0.000000 0.000001 1.117177 3.546357 -8.633310 -53.487017 4.935507 -51.502980 0.000237 -106.358067 0.000256 1.988611 -7.706146 -15.869273 -6.141202 -11.690808 -6.761692 9.914136 42.595512 3.409866 0.000001 0.000002 -0.000001 0.255313 3.378235 -45.814344 5.654074 5.847738 -88.067435 0.000000 0.000000 0.000002 -0.461479 3.841597 -39.722676 6.450752 5.820348 -95.892871 -0.000000 0.000001 -0.000001 0.469720 4.966810 -39.799427 8.181041 5.368630 -113.502998 0.000000 0.000000 -0.000001 -3.762431 9.063702 -45.253818 5.342527 5.829003 -85.005311 -0.000002 0.000001 -0.000002 -0.000000 -0.000001 -0.000001 3.036129 13.027203 -5.371409 -48.713722 27.172830 83.457084 0.000098 105.988301 -0.000103 -8.345374 17.548100 8.775661 -7.341084 13.749664 7.412328 9.855786 -44.489089 -3.903248 -0.000001 -0.000001 0.000002 -0.124381 -2.384805 45.108864 4.500579 -4.654530 88.071164 -0.000000 0.000001 0.000004 -0.761627 -2.932917 39.031058 5.133893 -4.632756 95.881635 0.000000 0.000001 -0.000004 0.154756 -4.068802 39.122671 6.509729 -4.273609 113.462863 -0.000000 -0.000001 0.000001 -4.198881 -8.025535 44.637776 4.252926 -4.639637 85.014832 0.000001 -0.000000 0.000001 -0.000001 0.000002 -0.000004 0.000001 0.000002 -0.000001 -0.000000 -0.000001 0.000000 0.000001 0.000002 -0.000000 0.000001 0.000002 -0.000000 0.000001 0.000002 -0.000001 -0.000000 -0.000001 0.000000 0.000001 0.000002 -0.000000 0.000001 0.000002 -0.000000 0.000001 0.000002 -0.000001 -0.000000 -0.000001 0.000000 0.000001 0.000000 -0.000000 0.000001 0.000000 -0.000000 0.000001 0.000000 -0.000000 
-0.928989 60.882301 1.355731 -5.081452 -46.519995 0.142385 -0.000000 0.000004 0.000000 -30.455636 8.687538 16.697055 60.946522 -6.634257 4.175775 -28.087404 -7.369306 -13.462942 -0.000000 -0.000001 -0.000000 0.000000 -0.000001 0.000000 -23.788844 -11.902577 -27.855769 59.309039 -8.154478 -7.678249 -28.315748 -7.184198 22.197485 -0.000000 0.000000 -0.000000 -0.000000 -0.000001 -0.000000 9.696508 7.307122 -2.094547 2.062173 1.010597 -0.893726 2.076818 1.004102 -0.874000 0.115997 13.237029 4.673037 8.696456 20.175026 -3.730637 0.000000 0.000000 0.000000 0.000000 0.000000 0.000000 0.000000 0.000000 0.000001 0.000000 0.000000 -0.000001 0.000000 0.000000 -0.000000 0.000000 0.000000 -0.000001 0.000000 0.000000 -0.000000 0.000000 0.000000 0.000000 0.000000 0.000000 0.000000 1.112657 3.581125 -8.635980 -53.210671 4.972771 -51.357237 -0.000028 -106.367765 -0.000021 2.411222 -7.507508 -16.196294 -6.141202 -11.690809 -6.761701 9.914139 42.595512 3.409876 0.000002 0.000001 -0.000000 0.255314 3.378232 -45.814348 5.654074 5.847740 -88.067435 0.000000 0.000002 -0.000002 -0.461479 3.841595 -39.722676 6.450750 5.820351 -95.892864 -0.000001 0.000004 -0.000004 0.469720 4.966807 -39.799434 8.181042 5.368628 -113.502998 -0.000001 0.000000 -0.000001 -3.762429 9.063702 -45.253821 5.342525 5.829004 -85.005311 0.000001 -0.000004 0.000000 0.000000 -0.000000 -0.000000 3.105120 13.142780 -5.328003 -48.727444 27.290291 83.461531 0.000267 105.913708 -0.000258 -8.160912 17.583426 8.793059 -7.341082 13.749664 7.412333 9.855786 -44.489089 -3.903249 0.000001 -0.000001 -0.000001 -0.124379 -2.384804 45.108864 4.500579 -4.654528 88.071164 -0.000002 -0.000001 0.000002 -0.761626 -2.932917 39.031058 5.133888 -4.632762 95.881642 -0.000001 -0.000001 -0.000001 0.154757 -4.068800 39.122668 6.509731 -4.273611 113.462877 0.000000 -0.000001 -0.000002 -4.198878 -8.025533 44.637776 4.252925 -4.639639 85.014832 -0.000001 -0.000003 0.000002 0.000003 -0.000001 -0.000001 -0.000000 -0.000001 0.000000 -0.000000 -0.000002 0.000000 -0.000000 -0.000001 -0.000000 -0.000000 -0.000001 -0.000000 -0.000000 -0.000001 0.000000 -0.000000 -0.000002 0.000000 -0.000000 -0.000001 -0.000000 -0.000000 -0.000001 -0.000000 -0.000000 -0.000001 0.000000 -0.000000 -0.000002 0.000000 -0.000000 0.000004 0.000000 -0.000000 0.000004 0.000000 -0.000000 0.000004 0.000000 
-0.850459 60.603951 1.784704 -4.839359 -46.895215 0.328533 -0.000000 -0.000001 0.000000 -30.973153 8.621446 16.538955 62.496156 -6.425206 4.033878 -28.923812 -7.013035 -13.087740 -0.000000 0.000001 -0.000000 0.000001 0.000000 0.000000 -24.302257 -11.716961 -28.527552 59.893246 -7.151268 -7.717105 -28.552822 -7.571934 22.237330 -0.000000 -0.000001 -0.000000 0.000000 0.000001 -0.000002 9.984747 7.438143 -2.344509 1.916819 1.031761 -0.894298 1.931407 1.025004 -0.876844 0.148173 13.275063 4.803500 8.434756 20.259430 -3.299769 -0.000000 0.000000 -0.000000 -0.000000 0.000000 -0.000000 -0.000000 0.000000 0.000000 -0.000000 0.000000 -0.000000 -0.000000 -0.000000 0.000001 -0.000000 0.000000 -0.000000 -0.000000 -0.000000 0.000001 -0.000000 0.000000 -0.000000 -0.000000 0.000000 -0.000000 1.110765 3.630399 -8.655379 -52.841759 5.112489 -51.141680 0.000241 -106.568040 0.000232 2.622634 -7.353742 -16.403719 -6.141200 -11.690809 -6.761700 9.914133 42.595508 3.409871 0.000000 -0.000004 0.000002 0.255315 3.378233 -45.814348 5.654072 5.847740 -88.067435 0.000002 0.000000 -0.000002 -0.461475 3.841596 -39.722676 6.450750 5.820351 -95.892871 -0.000000 0.000002 0.000001 0.469722 4.966810 -39.799434 8.181043 5.368630 -113.502998 -0.000000 0.000002 -0.000002 -3.762427 9.063703 -45.253818 5.342526 5.829003 -85.005311 0.000004 -0.000004 0.000002 0.000000 -0.000002 -0.000000 3.169172 13.274909 -5.296751 -48.735749 27.444516 83.446142 0.000207 105.845741 -0.000214 -7.984257 17.693513 8.782190 -7.341082 13.749665 7.412330 9.855790 -44.489089 -3.903242 0.000001 0.000003 -0.000002 -0.124378 -2.384802 45.108868 4.500582 -4.654526 88.071164 -0.000004 -0.000001 0.000000 -0.761624 -2.932912 39.031055 5.133890 -4.632762 95.881642 0.000000 -0.000001 -0.000001 0.154758 -4.068800 39.122668 6.509729 -4.273607 113.462870 0.000000 -0.000002 -0.000002 -4.198876 -8.025529 44.637776 4.252924 -4.639640 85.014832 0.000000 0.000001 0.000004 0.000002 0.000000 -0.000001 -0.000000 -0.000001 0.000000 0.000000 -0.000004 0.000000 -0.000000 -0.000001 -0.000000 -0.000000 -0.000001 -0.000000 -0.000000 -0.000001 0.000000 0.000000 -0.000004 0.000001 -0.000000 -0.000001 -0.000000 -0.000000 -0.000001 -0.000000 -0.000000 -0.000001 0.000000 0.000000 -0.000004 0.000001 -0.000000 -0.000001 0.000000 -0.000000 -0.000001 0.000000 -0.000000 -0.000001 0.000000 
-0.762791 60.269173 2.254918 -4.723338 -47.344986 0.460164 -0.000000 0.000002 0.000000 -31.590468 8.551365 16.406504 64.428191 -6.154254 3.876222 -29.739180 -6.837120 -12.702826 -0.000000 -0.000001 0.000000 0.000002 0.000000 -0.000001 -24.850714 -11.505922 -29.310818 60.615812 -5.991457 -7.855331 -28.863628 -7.993037 22.293655 -0.000000 -0.000000 -0.000000 -0.000002 -0.000001 -0.000002 10.342875 7.565695 -2.525482 1.751585 1.053333 -0.915970 1.766520 1.045419 -0.901337 0.181824 13.330687 4.930961 8.143637 20.381259 -2.845092 0.000001 -0.000000 0.000001 0.000001 -0.000000 0.000001 0.000001 -0.000000 0.000001 0.000001 -0.000000 0.000001 0.000001 0.000000 0.000001 0.000001 -0.000000 0.000001 0.000001 0.000000 0.000001 0.000001 -0.000000 0.000001 0.000001 -0.000000 0.000001 1.111786 3.693824 -8.692150 -52.361719 5.340832 -50.878308 0.000058 -106.890487 0.000089 2.654536 -7.266165 -16.480622 -6.141202 -11.690810 -6.761697 9.914138 42.595512 3.409864 0.000001 -0.000002 -0.000000 0.255316 3.378232 -45.814348 5.654072 5.847740 -88.067435 0.000003 0.000002 0.000000 -0.461476 3.841595 -39.722686 6.450750 5.820353 -95.892871 -0.000000 0.000000 0.000001 0.469722 4.966807 -39.799430 8.181042 5.368630 -113.503004 -0.000001 0.000000 0.000002 -3.762426 9.063701 -45.253821 5.342532 5.829004 -85.005311 -0.000000 -0.000004 0.000002 0.000001 0.000002 0.000001 3.224296 13.415406 -5.279436 -48.718158 27.637162 83.417572 0.000380 105.772234 -0.000366 -7.808826 17.876212 8.743109 -7.341082 13.749664 7.412330 9.855791 -44.489093 -3.903248 0.000000 -0.000001 0.000001 -0.124379 -2.384802 45.108864 4.500574 -4.654528 88.071157 -0.000002 0.000001 -0.000001 -0.761625 -2.932913 39.031055 5.133893 -4.632754 95.881635 -0.000000 -0.000001 0.000001 0.154757 -4.068802 39.122671 6.509731 -4.273607 113.462870 0.000000 -0.000001 -0.000001 -4.198878 -8.025529 44.637776 4.252922 -4.639640 85.014839 0.000000 -0.000001 0.000000 0.000001 -0.000002 -0.000000 -0.000000 -0.000001 0.000000 0.000000 0.000002 -0.000000 -0.000000 -0.000001 0.000000 -0.000000 -0.000001 0.000000 -0.000000 -0.000001 0.000000 0.000000 0.000002 -0.000000 -0.000000 -0.000001 0.000000 -0.000000 -0.000001 0.000000 -0.000000 -0.000001 0.000000 0.000000 0.000002 -0.000000 -0.000000 0.000002 0.000000 -0.000000 0.000002 0.000000 -0.000000 0.000002 0.000000 
